<svg xmlns="http://www.w3.org/2000/svg" viewBox="0 0 7410 3900"><path fill="#b22234" d="M0 0h7410v3900H0z"/><path fill="#fff" d="M0 300h7410v300H0zm0 600h7410v300H0zm0 600h7410v300H0zm0 600h7410v300H0zm0 600h7410v300H0zm0 600h7410v300H0zm0 600h7410v300H0z"/><path fill="#3c3b6e" d="M0 0h2964v2100H0z"/><g fill="#fff"><g id="d"><g id="c"><g id="e"><g id="b"><path id="a" d="M247 90l70.5 217.3h228.7L331.4 347.7 401.9 565 247 437.3 92.1 565l70.5-217.3L0 307.3h228.7z"/><use xlink:href="#a" y="420"/><use xlink:href="#a" y="840"/><use xlink:href="#a" y="1260"/><use xlink:href="#a" y="1680"/></g><use xlink:href="#b" x="247" y="210"/></g><use xlink:href="#e" x="494"/></g><use xlink:href="#c" x="988"/></g><use xlink:href="#d" x="1976"/></g></g></svg>